<svg xmlns="http://www.w3.org/2000/svg" viewBox="0 0 200 220" role="img" aria-label="eoroff">
  <defs>
    <linearGradient id="eoroffWord" x1="0%" y1="0%" x2="100%" y2="0%">
      <stop offset="0%" stop-color="#1e3a6e"/>
      <stop offset="45%" stop-color="#2563eb"/>
      <stop offset="100%" stop-color="#4ade80"/>
    </linearGradient>
  </defs>
  <!-- DtX: ,… 0½, iOS ¤´t p t + ˜°T·ÜÄ -->
  <rect x="24" y="0" width="152" height="152" rx="34" fill="#fff"/>
  <rect x="24" y="0" width="152" height="152" rx="34" fill="none" stroke="#e8eef4" stroke-width="1"/>
  <!-- ˜°T äT -->
  <rect x="52" y="28" width="96" height="22" rx="4" fill="#5b9bd5"/>
  <circle cx="62" cy="24" r="4" fill="#94a3b8"/>
  <circle cx="138" cy="24" r="4" fill="#94a3b8"/>
  <!-- ˜°T ø8 -->
  <rect x="52" y="50" width="96" height="72" rx="2" fill="#f8fafc" stroke="#cbd5e1" stroke-width="1.5"/>
  <path fill="#ef4444" d="M68 62h14v28H68zm-5 5h24v6H63z"/>
  <path fill="none" stroke="#22c55e" stroke-width="5" stroke-linecap="round" stroke-linejoin="round" d="M98 78l8 8 14-16"/>
  <!-- ÜÄ -->
  <circle cx="132" cy="108" r="22" fill="#fff" stroke="#5b9bd5" stroke-width="3"/>
  <circle cx="132" cy="108" r="2" fill="#1e3a6e"/>
  <path stroke="#1e3a6e" stroke-width="2.5" stroke-linecap="round" d="M132 108V96M132 108l8 6"/>
  <!-- ÌÜÈl -->
  <text x="100" y="198" text-anchor="middle" font-family="system-ui,-apple-system,'Segoe UI',sans-serif" font-size="36" font-weight="700" fill="url(#eoroffWord)">eoroff</text>
</svg>
